# MagicaVoxel @ Ephtracy

# group
o 

# material
mtllib Candy_Man_arm_left.mtl
usemtl palette

# normals
vn -1 0 0
vn 1 0 0
vn 0 0 1
vn 0 0 -1
vn 0 -1 0
vn 0 1 0

# texcoords
vt 0.845703 0.5
vt 0.849609 0.5
vt 0.853516 0.5
vt 0.916016 0.5
vt 0.958984 0.5
vt 0.966797 0.5
vt 0.994141 0.5

# verts
v 1.2 3.5 -1
v 1.2 3.5 -2.1
v 1.2 3.5 -2.4
v 1.2 3.6 -1.5
v 1.2 3.6 -1.7
v 1.2 3.6 -2
v 1.2 3.6 -2.1
v 1.2 3.6 -2.9
v 1.2 3.6 -3
v 1.2 3.6 -3.1
v 1.2 3.6 -3.2
v 1.2 3.6 -3.4
v 1.2 3.6 -3.6
v 1.2 3.7 -1.3
v 1.2 3.7 -1.5
v 1.2 3.7 -1.6
v 1.2 3.7 -1.7
v 1.2 3.7 -1.9
v 1.2 3.7 -2
v 1.2 3.7 -2.3
v 1.2 3.7 -2.4
v 1.2 3.7 -2.9
v 1.2 3.7 -3
v 1.2 3.7 -3.2
v 1.2 3.7 -3.3
v 1.2 3.7 -3.4
v 1.2 3.7 -3.5
v 1.2 3.7 -3.6
v 1.2 3.8 -1.2
v 1.2 3.8 -1.3
v 1.2 3.8 -1.4
v 1.2 3.8 -1.6
v 1.2 3.8 -1.8
v 1.2 3.8 -1.9
v 1.2 3.8 -2.2
v 1.2 3.8 -2.3
v 1.2 3.8 -2.9
v 1.2 3.8 -3
v 1.2 3.8 -3.1
v 1.2 3.8 -3.2
v 1.2 3.8 -3.3
v 1.2 3.8 -3.4
v 1.2 3.8 -3.5
v 1.2 3.9 -1.1
v 1.2 3.9 -1.2
v 1.2 3.9 -1.3
v 1.2 3.9 -1.4
v 1.2 3.9 -2
v 1.2 3.9 -2.2
v 1.2 3.9 -2.9
v 1.2 3.9 -3
v 1.2 3.9 -3.1
v 1.2 3.9 -3.2
v 1.2 3.9 -3.3
v 1.2 3.9 -3.4
v 1.2 4 -1.1
v 1.2 4 -1.3
v 1.2 4 -1.8
v 1.2 4 -2
v 1.2 4 -2.1
v 1.2 4 -2.3
v 1.2 4 -2.4
v 1.2 4.1 -1
v 1.2 4.1 -2.1
v 1.2 4.1 -2.3
v 1.2 4.1 -2.4
v 1.3 3.6 -2.4
v 1.3 3.6 -2.9
v 1.3 3.6 -3.2
v 1.3 3.6 -3.3
v 1.3 3.7 -2.4
v 1.3 3.7 -2.5
v 1.3 3.7 -2.8
v 1.3 3.7 -2.9
v 1.3 3.7 -3.2
v 1.3 3.7 -3.3
v 1.3 3.8 -2.6
v 1.3 3.8 -2.8
v 1.3 3.8 -2.9
v 1.3 3.9 -2.5
v 1.3 3.9 -2.6
v 1.3 3.9 -2.8
v 1.3 3.9 -2.9
v 1.3 4 -2.4
v 1.3 4 -2.8
v 1.4 3.6 -3.4
v 1.4 3.6 -3.6
v 1.4 3.7 -3.3
v 1.4 3.7 -3.4
v 1.4 3.7 -3.5
v 1.4 3.7 -3.6
v 1.4 3.8 -3.3
v 1.4 3.8 -3.4
v 1.4 3.8 -3.5
v 1.4 3.9 -3.3
v 1.4 3.9 -3.4
v 1.5 3.6 -3.2
v 1.5 3.6 -3.3
v 1.5 3.7 -3.2
v 1.5 3.7 -3.3
v 1.6 3.6 -3.4
v 1.6 3.6 -3.6
v 1.6 3.7 -3.3
v 1.6 3.7 -3.4
v 1.6 3.7 -3.5
v 1.6 3.7 -3.6
v 1.6 3.8 -3.3
v 1.6 3.8 -3.4
v 1.6 3.8 -3.5
v 1.6 3.9 -3.3
v 1.6 3.9 -3.4
v 1.8 3.6 -3.2
v 1.8 3.6 -3.3
v 1.8 3.6 -3.4
v 1.8 3.8 -3.2
v 1.8 3.8 -3.3
v 1.8 3.8 -3.4
v 1.3 3.6 -3.4
v 1.3 3.6 -3.6
v 1.3 3.7 -3.3
v 1.3 3.7 -3.4
v 1.3 3.7 -3.5
v 1.3 3.7 -3.6
v 1.3 3.8 -3.3
v 1.3 3.8 -3.4
v 1.3 3.8 -3.5
v 1.3 3.9 -3.3
v 1.3 3.9 -3.4
v 1.4 3.6 -3.2
v 1.4 3.6 -3.3
v 1.4 3.7 -3.2
v 1.4 3.7 -3.3
v 1.5 3.6 -3.4
v 1.5 3.6 -3.6
v 1.5 3.7 -3.3
v 1.5 3.7 -3.4
v 1.5 3.7 -3.5
v 1.5 3.7 -3.6
v 1.5 3.8 -3.3
v 1.5 3.8 -3.4
v 1.5 3.8 -3.5
v 1.5 3.9 -3.3
v 1.5 3.9 -3.4
v 1.6 3.6 -3.2
v 1.6 3.6 -3.3
v 1.6 3.7 -3.2
v 1.6 3.7 -3.3
v 1.7 3.6 -2.4
v 1.7 3.6 -2.7
v 1.7 3.6 -3.4
v 1.7 3.6 -3.6
v 1.7 3.7 -2.4
v 1.7 3.7 -2.7
v 1.7 3.7 -3.2
v 1.7 3.7 -3.3
v 1.7 3.7 -3.4
v 1.7 3.7 -3.5
v 1.7 3.7 -3.6
v 1.7 3.8 -2.4
v 1.7 3.8 -2.7
v 1.7 3.8 -3.2
v 1.7 3.8 -3.4
v 1.7 3.8 -3.5
v 1.7 3.9 -2.7
v 1.7 3.9 -2.8
v 1.7 3.9 -3.2
v 1.7 3.9 -3.3
v 1.7 3.9 -3.4
v 1.7 4 -2.4
v 1.7 4 -2.8
v 1.8 3.5 -1
v 1.8 3.5 -2.2
v 1.8 3.5 -2.4
v 1.8 3.6 -2.1
v 1.8 3.6 -2.2
v 1.8 3.6 -2.7
v 1.8 3.6 -2.9
v 1.8 3.7 -1.4
v 1.8 3.7 -1.7
v 1.8 3.7 -2
v 1.8 3.7 -2.1
v 1.8 3.7 -2.3
v 1.8 3.7 -2.4
v 1.8 3.7 -2.9
v 1.8 3.8 -1.1
v 1.8 3.8 -1.4
v 1.8 3.8 -1.5
v 1.8 3.8 -1.7
v 1.8 3.8 -2.2
v 1.8 3.8 -2.3
v 1.8 3.8 -2.9
v 1.8 3.9 -1.1
v 1.8 3.9 -1.5
v 1.8 3.9 -1.9
v 1.8 3.9 -2
v 1.8 3.9 -2.1
v 1.8 3.9 -2.2
v 1.8 3.9 -2.7
v 1.8 3.9 -2.9
v 1.8 4 -1.9
v 1.8 4 -2.1
v 1.8 4 -2.3
v 1.8 4 -2.4
v 1.8 4.1 -1
v 1.8 4.1 -2.1
v 1.8 4.1 -2.3
v 1.8 4.1 -2.4
v 1.9 3.6 -2.9
v 1.9 3.6 -3
v 1.9 3.6 -3.1
v 1.9 3.6 -3.2
v 1.9 3.7 -2.9
v 1.9 3.7 -3
v 1.9 3.8 -2.9
v 1.9 3.8 -3
v 1.9 3.8 -3.1
v 1.9 3.8 -3.2
v 1.9 3.9 -2.9
v 1.9 3.9 -3
v 1.9 3.9 -3.1
v 1.9 3.9 -3.2
v 2 3.6 -3.2
v 2 3.6 -3.3
v 2 3.6 -3.4
v 2 3.8 -3.2
v 2 3.8 -3.3
v 2 3.8 -3.4
v 1.2 3.5 -1
v 1.2 4.1 -1
v 1.8 3.5 -1
v 1.8 4.1 -1
v 1.7 3.6 -2.7
v 1.7 3.7 -2.7
v 1.7 3.8 -2.7
v 1.7 3.9 -2.7
v 1.8 3.6 -2.7
v 1.8 3.9 -2.7
v 1.2 3.6 -2.9
v 1.2 3.7 -2.9
v 1.2 3.8 -2.9
v 1.2 3.9 -2.9
v 1.3 3.6 -2.9
v 1.3 3.7 -2.9
v 1.3 3.8 -2.9
v 1.3 3.9 -2.9
v 1.8 3.6 -2.9
v 1.8 3.7 -2.9
v 1.8 3.8 -2.9
v 1.8 3.9 -2.9
v 1.9 3.6 -2.9
v 1.9 3.7 -2.9
v 1.9 3.8 -2.9
v 1.9 3.9 -2.9
v 1.9 3.6 -3.2
v 1.9 3.8 -3.2
v 2 3.6 -3.2
v 2 3.8 -3.2
v 1.2 3.6 -3.4
v 1.2 3.7 -3.4
v 1.3 3.6 -3.4
v 1.3 3.7 -3.4
v 1.4 3.6 -3.4
v 1.4 3.7 -3.4
v 1.5 3.6 -3.4
v 1.5 3.7 -3.4
v 1.6 3.6 -3.4
v 1.6 3.7 -3.4
v 1.7 3.6 -3.4
v 1.7 3.7 -3.4
v 1.2 3.5 -2.4
v 1.2 3.7 -2.4
v 1.2 4 -2.4
v 1.2 4.1 -2.4
v 1.3 3.5 -2.4
v 1.3 3.6 -2.4
v 1.3 3.7 -2.4
v 1.3 4 -2.4
v 1.7 3.5 -2.4
v 1.7 3.6 -2.4
v 1.7 3.7 -2.4
v 1.7 3.8 -2.4
v 1.7 4 -2.4
v 1.8 3.5 -2.4
v 1.8 3.7 -2.4
v 1.8 4 -2.4
v 1.8 4.1 -2.4
v 1.3 3.9 -2.8
v 1.3 4 -2.8
v 1.7 3.9 -2.8
v 1.7 4 -2.8
v 1.2 3.6 -3.2
v 1.2 3.7 -3.2
v 1.3 3.6 -3.2
v 1.3 3.7 -3.2
v 1.4 3.6 -3.2
v 1.4 3.7 -3.2
v 1.5 3.6 -3.2
v 1.5 3.7 -3.2
v 1.6 3.6 -3.2
v 1.6 3.7 -3.2
v 1.7 3.6 -3.2
v 1.7 3.7 -3.2
v 1.7 3.8 -3.2
v 1.7 3.9 -3.2
v 1.8 3.6 -3.2
v 1.8 3.8 -3.2
v 1.9 3.8 -3.2
v 1.9 3.9 -3.2
v 1.3 3.6 -3.3
v 1.3 3.7 -3.3
v 1.3 3.8 -3.3
v 1.3 3.9 -3.3
v 1.4 3.6 -3.3
v 1.4 3.7 -3.3
v 1.4 3.8 -3.3
v 1.4 3.9 -3.3
v 1.5 3.6 -3.3
v 1.5 3.7 -3.3
v 1.5 3.8 -3.3
v 1.5 3.9 -3.3
v 1.6 3.6 -3.3
v 1.6 3.7 -3.3
v 1.6 3.8 -3.3
v 1.6 3.9 -3.3
v 1.2 3.8 -3.4
v 1.2 3.9 -3.4
v 1.3 3.8 -3.4
v 1.3 3.9 -3.4
v 1.4 3.8 -3.4
v 1.4 3.9 -3.4
v 1.5 3.8 -3.4
v 1.5 3.9 -3.4
v 1.6 3.8 -3.4
v 1.6 3.9 -3.4
v 1.7 3.8 -3.4
v 1.7 3.9 -3.4
v 1.8 3.6 -3.4
v 1.8 3.8 -3.4
v 2 3.6 -3.4
v 2 3.8 -3.4
v 1.2 3.7 -3.5
v 1.2 3.8 -3.5
v 1.3 3.7 -3.5
v 1.3 3.8 -3.5
v 1.4 3.7 -3.5
v 1.4 3.8 -3.5
v 1.5 3.7 -3.5
v 1.5 3.8 -3.5
v 1.6 3.7 -3.5
v 1.6 3.8 -3.5
v 1.7 3.7 -3.5
v 1.7 3.8 -3.5
v 1.2 3.6 -3.6
v 1.2 3.7 -3.6
v 1.3 3.6 -3.6
v 1.3 3.7 -3.6
v 1.4 3.6 -3.6
v 1.4 3.7 -3.6
v 1.5 3.6 -3.6
v 1.5 3.7 -3.6
v 1.6 3.6 -3.6
v 1.6 3.7 -3.6
v 1.7 3.6 -3.6
v 1.7 3.7 -3.6
v 1.2 3.5 -1
v 1.8 3.5 -1
v 1.2 3.5 -2.1
v 1.3 3.5 -2.1
v 1.7 3.5 -2.2
v 1.8 3.5 -2.2
v 1.2 3.5 -2.4
v 1.3 3.5 -2.4
v 1.7 3.5 -2.4
v 1.8 3.5 -2.4
v 1.3 3.6 -2.4
v 1.7 3.6 -2.4
v 1.7 3.6 -2.7
v 1.8 3.6 -2.7
v 1.4 3.6 -2.8
v 1.7 3.6 -2.8
v 1.2 3.6 -2.9
v 1.3 3.6 -2.9
v 1.4 3.6 -2.9
v 1.7 3.6 -2.9
v 1.8 3.6 -2.9
v 1.9 3.6 -2.9
v 1.2 3.6 -3
v 1.3 3.6 -3
v 1.4 3.6 -3
v 1.5 3.6 -3
v 1.6 3.6 -3
v 1.7 3.6 -3
v 1.8 3.6 -3
v 1.9 3.6 -3
v 1.2 3.6 -3.1
v 1.3 3.6 -3.1
v 1.5 3.6 -3.1
v 1.6 3.6 -3.1
v 1.7 3.6 -3.1
v 1.8 3.6 -3.1
v 1.9 3.6 -3.1
v 1.2 3.6 -3.2
v 1.3 3.6 -3.2
v 1.4 3.6 -3.2
v 1.5 3.6 -3.2
v 1.6 3.6 -3.2
v 1.7 3.6 -3.2
v 1.8 3.6 -3.2
v 1.9 3.6 -3.2
v 2 3.6 -3.2
v 1.3 3.6 -3.3
v 1.4 3.6 -3.3
v 1.5 3.6 -3.3
v 1.6 3.6 -3.3
v 1.8 3.6 -3.3
v 2 3.6 -3.3
v 1.2 3.6 -3.4
v 1.3 3.6 -3.4
v 1.4 3.6 -3.4
v 1.5 3.6 -3.4
v 1.6 3.6 -3.4
v 1.7 3.6 -3.4
v 1.8 3.6 -3.4
v 2 3.6 -3.4
v 1.2 3.6 -3.6
v 1.3 3.6 -3.6
v 1.4 3.6 -3.6
v 1.5 3.6 -3.6
v 1.6 3.6 -3.6
v 1.7 3.6 -3.6
v 1.2 3.7 -3.2
v 1.3 3.7 -3.2
v 1.4 3.7 -3.2
v 1.5 3.7 -3.2
v 1.6 3.7 -3.2
v 1.7 3.7 -3.2
v 1.2 3.7 -3.3
v 1.3 3.7 -3.3
v 1.4 3.7 -3.3
v 1.5 3.7 -3.3
v 1.6 3.7 -3.3
v 1.7 3.7 -3.3
v 1.2 3.7 -3.4
v 1.3 3.7 -3.4
v 1.4 3.7 -3.4
v 1.5 3.7 -3.4
v 1.6 3.7 -3.4
v 1.7 3.7 -3.4
v 1.2 3.7 -3.5
v 1.3 3.7 -3.5
v 1.4 3.7 -3.5
v 1.5 3.7 -3.5
v 1.6 3.7 -3.5
v 1.7 3.7 -3.5
v 1.2 3.7 -3.6
v 1.3 3.7 -3.6
v 1.4 3.7 -3.6
v 1.5 3.7 -3.6
v 1.6 3.7 -3.6
v 1.7 3.7 -3.6
v 1.8 3.8 -3.2
v 1.9 3.8 -3.2
v 2 3.8 -3.2
v 1.8 3.8 -3.3
v 2 3.8 -3.3
v 1.2 3.8 -3.4
v 1.3 3.8 -3.4
v 1.4 3.8 -3.4
v 1.5 3.8 -3.4
v 1.6 3.8 -3.4
v 1.7 3.8 -3.4
v 1.8 3.8 -3.4
v 2 3.8 -3.4
v 1.2 3.8 -3.5
v 1.3 3.8 -3.5
v 1.4 3.8 -3.5
v 1.5 3.8 -3.5
v 1.6 3.8 -3.5
v 1.7 3.8 -3.5
v 1.7 3.9 -2.7
v 1.8 3.9 -2.7
v 1.3 3.9 -2.8
v 1.7 3.9 -2.8
v 1.2 3.9 -2.9
v 1.3 3.9 -2.9
v 1.4 3.9 -2.9
v 1.6 3.9 -2.9
v 1.8 3.9 -2.9
v 1.9 3.9 -2.9
v 1.2 3.9 -3
v 1.4 3.9 -3
v 1.6 3.9 -3
v 1.9 3.9 -3
v 1.2 3.9 -3.1
v 1.9 3.9 -3.1
v 1.2 3.9 -3.2
v 1.3 3.9 -3.2
v 1.4 3.9 -3.2
v 1.5 3.9 -3.2
v 1.6 3.9 -3.2
v 1.7 3.9 -3.2
v 1.9 3.9 -3.2
v 1.2 3.9 -3.3
v 1.3 3.9 -3.3
v 1.4 3.9 -3.3
v 1.5 3.9 -3.3
v 1.6 3.9 -3.3
v 1.7 3.9 -3.3
v 1.2 3.9 -3.4
v 1.3 3.9 -3.4
v 1.4 3.9 -3.4
v 1.5 3.9 -3.4
v 1.6 3.9 -3.4
v 1.7 3.9 -3.4
v 1.3 4 -2.4
v 1.7 4 -2.4
v 1.3 4 -2.8
v 1.7 4 -2.8
v 1.2 4.1 -1
v 1.8 4.1 -1
v 1.4 4.1 -1.8
v 1.6 4.1 -1.8
v 1.3 4.1 -1.9
v 1.4 4.1 -1.9
v 1.6 4.1 -1.9
v 1.7 4.1 -1.9
v 1.2 4.1 -2.1
v 1.3 4.1 -2.1
v 1.4 4.1 -2.1
v 1.6 4.1 -2.1
v 1.7 4.1 -2.1
v 1.8 4.1 -2.1
v 1.2 4.1 -2.3
v 1.3 4.1 -2.3
v 1.7 4.1 -2.3
v 1.8 4.1 -2.3
v 1.2 4.1 -2.4
v 1.8 4.1 -2.4

# faces
f 4/5/1 2/5/1 1/5/1
f 5/5/1 2/5/1 4/5/1
f 6/5/1 2/5/1 5/5/1
f 7/1/1 3/1/1 2/1/1
f 7/5/1 2/5/1 6/5/1
f 14/5/1 4/5/1 1/5/1
f 15/1/1 5/1/1 4/1/1
f 15/5/1 4/5/1 14/5/1
f 16/1/1 5/1/1 15/1/1
f 17/5/1 6/5/1 5/5/1
f 17/1/1 5/1/1 16/1/1
f 18/5/1 6/5/1 17/5/1
f 19/1/1 7/1/1 6/1/1
f 19/5/1 6/5/1 18/5/1
f 20/1/1 3/1/1 7/1/1
f 20/1/1 7/1/1 19/1/1
f 21/1/1 3/1/1 20/1/1
f 22/5/1 9/5/1 8/5/1
f 23/3/1 10/3/1 9/3/1
f 23/5/1 9/5/1 22/5/1
f 24/1/1 11/1/1 10/1/1
f 26/6/1 13/6/1 12/6/1
f 27/6/1 13/6/1 26/6/1
f 28/6/1 13/6/1 27/6/1
f 29/5/1 14/5/1 1/5/1
f 30/1/1 16/1/1 15/1/1
f 30/5/1 14/5/1 29/5/1
f 30/1/1 15/1/1 14/1/1
f 31/1/1 16/1/1 30/1/1
f 32/5/1 18/5/1 17/5/1
f 32/1/1 16/1/1 31/1/1
f 32/5/1 17/5/1 16/5/1
f 33/5/1 18/5/1 32/5/1
f 34/1/1 19/1/1 18/1/1
f 34/5/1 18/5/1 33/5/1
f 34/1/1 20/1/1 19/1/1
f 35/1/1 20/1/1 34/1/1
f 36/5/1 21/5/1 20/5/1
f 36/1/1 20/1/1 35/1/1
f 37/3/1 23/3/1 22/3/1
f 38/3/1 10/3/1 23/3/1
f 38/3/1 23/3/1 37/3/1
f 39/1/1 25/1/1 24/1/1
f 39/3/1 10/3/1 38/3/1
f 39/1/1 24/1/1 10/1/1
f 40/1/1 25/1/1 39/1/1
f 41/6/1 27/6/1 26/6/1
f 41/1/1 25/1/1 40/1/1
f 41/6/1 26/6/1 25/6/1
f 42/6/1 27/6/1 41/6/1
f 43/6/1 27/6/1 42/6/1
f 44/5/1 29/5/1 1/5/1
f 45/1/1 31/1/1 30/1/1
f 45/5/1 29/5/1 44/5/1
f 45/1/1 30/1/1 29/1/1
f 46/1/1 31/1/1 45/1/1
f 47/5/1 33/5/1 32/5/1
f 47/1/1 31/1/1 46/1/1
f 47/5/1 32/5/1 31/5/1
f 48/1/1 35/1/1 34/1/1
f 48/1/1 34/1/1 33/1/1
f 49/5/1 36/5/1 35/5/1
f 49/1/1 35/1/1 48/1/1
f 50/5/1 38/5/1 37/5/1
f 51/3/1 39/3/1 38/3/1
f 51/5/1 38/5/1 50/5/1
f 52/2/1 40/2/1 39/2/1
f 52/3/1 39/3/1 51/3/1
f 53/7/1 41/7/1 40/7/1
f 53/2/1 40/2/1 52/2/1
f 54/6/1 42/6/1 41/6/1
f 54/7/1 41/7/1 53/7/1
f 55/6/1 42/6/1 54/6/1
f 56/5/1 44/5/1 1/5/1
f 56/1/1 46/1/1 45/1/1
f 56/1/1 45/1/1 44/1/1
f 57/5/1 47/5/1 46/5/1
f 57/1/1 46/1/1 56/1/1
f 58/5/1 33/5/1 47/5/1
f 58/5/1 47/5/1 57/5/1
f 58/1/1 48/1/1 33/1/1
f 59/5/1 49/5/1 48/5/1
f 59/1/1 48/1/1 58/1/1
f 60/5/1 49/5/1 59/5/1
f 61/5/1 36/5/1 49/5/1
f 61/5/1 49/5/1 60/5/1
f 61/5/1 21/5/1 36/5/1
f 62/5/1 21/5/1 61/5/1
f 63/5/1 60/5/1 59/5/1
f 63/5/1 58/5/1 57/5/1
f 63/5/1 57/5/1 56/5/1
f 63/5/1 56/5/1 1/5/1
f 63/5/1 59/5/1 58/5/1
f 64/2/1 61/2/1 60/2/1
f 64/5/1 60/5/1 63/5/1
f 65/1/1 62/1/1 61/1/1
f 65/2/1 61/2/1 64/2/1
f 66/1/1 62/1/1 65/1/1
f 71/5/1 68/5/1 67/5/1
f 72/5/1 68/5/1 71/5/1
f 73/5/1 68/5/1 72/5/1
f 74/5/1 68/5/1 73/5/1
f 75/2/1 70/2/1 69/2/1
f 76/2/1 70/2/1 75/2/1
f 77/1/1 73/1/1 72/1/1
f 78/5/1 74/5/1 73/5/1
f 78/1/1 73/1/1 77/1/1
f 79/5/1 74/5/1 78/5/1
f 80/1/1 77/1/1 72/1/1
f 80/5/1 72/5/1 71/5/1
f 81/5/1 79/5/1 78/5/1
f 81/1/1 77/1/1 80/1/1
f 81/5/1 78/5/1 77/5/1
f 82/5/1 79/5/1 81/5/1
f 83/5/1 79/5/1 82/5/1
f 84/5/1 80/5/1 71/5/1
f 84/5/1 81/5/1 80/5/1
f 84/5/1 82/5/1 81/5/1
f 85/5/1 82/5/1 84/5/1
f 89/6/1 87/6/1 86/6/1
f 90/6/1 87/6/1 89/6/1
f 91/6/1 87/6/1 90/6/1
f 92/6/1 89/6/1 88/6/1
f 92/6/1 90/6/1 89/6/1
f 93/6/1 90/6/1 92/6/1
f 94/6/1 90/6/1 93/6/1
f 95/6/1 93/6/1 92/6/1
f 96/6/1 93/6/1 95/6/1
f 99/2/1 98/2/1 97/2/1
f 100/2/1 98/2/1 99/2/1
f 104/6/1 102/6/1 101/6/1
f 105/6/1 102/6/1 104/6/1
f 106/6/1 102/6/1 105/6/1
f 107/6/1 104/6/1 103/6/1
f 107/6/1 105/6/1 104/6/1
f 108/6/1 105/6/1 107/6/1
f 109/6/1 105/6/1 108/6/1
f 110/6/1 108/6/1 107/6/1
f 111/6/1 108/6/1 110/6/1
f 115/2/1 113/2/1 112/2/1
f 116/6/1 114/6/1 113/6/1
f 116/2/1 113/2/1 115/2/1
f 117/6/1 114/6/1 116/6/1
f 118/6/2 119/6/2 121/6/2
f 121/6/2 119/6/2 122/6/2
f 122/6/2 119/6/2 123/6/2
f 120/6/2 121/6/2 124/6/2
f 121/6/2 122/6/2 124/6/2
f 124/6/2 122/6/2 125/6/2
f 125/6/2 122/6/2 126/6/2
f 124/6/2 125/6/2 127/6/2
f 127/6/2 125/6/2 128/6/2
f 129/2/2 130/2/2 131/2/2
f 131/2/2 130/2/2 132/2/2
f 133/6/2 134/6/2 136/6/2
f 136/6/2 134/6/2 137/6/2
f 137/6/2 134/6/2 138/6/2
f 135/6/2 136/6/2 139/6/2
f 136/6/2 137/6/2 139/6/2
f 139/6/2 137/6/2 140/6/2
f 140/6/2 137/6/2 141/6/2
f 139/6/2 140/6/2 142/6/2
f 142/6/2 140/6/2 143/6/2
f 144/2/2 145/2/2 146/2/2
f 146/2/2 145/2/2 147/2/2
f 148/5/2 149/5/2 152/5/2
f 152/5/2 149/5/2 153/5/2
f 150/6/2 151/6/2 156/6/2
f 156/6/2 151/6/2 157/6/2
f 157/6/2 151/6/2 158/6/2
f 152/1/2 153/1/2 159/1/2
f 159/1/2 153/1/2 160/1/2
f 154/7/2 155/7/2 161/7/2
f 155/6/2 156/6/2 162/6/2
f 156/6/2 157/6/2 162/6/2
f 162/6/2 157/6/2 163/6/2
f 159/5/2 160/5/2 164/5/2
f 161/7/2 155/7/2 166/7/2
f 155/6/2 162/6/2 167/6/2
f 166/7/2 155/7/2 167/7/2
f 167/6/2 162/6/2 168/6/2
f 164/5/2 165/5/2 169/5/2
f 159/5/2 164/5/2 169/5/2
f 169/5/2 165/5/2 170/5/2
f 171/5/2 172/5/2 174/5/2
f 172/1/2 173/1/2 175/1/2
f 174/5/2 172/5/2 175/5/2
f 171/5/2 174/5/2 178/5/2
f 178/5/2 174/5/2 179/5/2
f 179/5/2 174/5/2 180/5/2
f 174/1/2 175/1/2 181/1/2
f 180/5/2 174/5/2 181/5/2
f 175/1/2 173/1/2 182/1/2
f 181/1/2 175/1/2 182/1/2
f 182/1/2 173/1/2 183/1/2
f 176/5/2 177/5/2 184/5/2
f 171/5/2 178/5/2 185/5/2
f 178/1/2 179/1/2 186/1/2
f 185/5/2 178/5/2 186/5/2
f 186/1/2 179/1/2 187/1/2
f 179/5/2 180/5/2 188/5/2
f 187/1/2 179/1/2 188/1/2
f 180/1/2 181/1/2 189/1/2
f 181/1/2 182/1/2 189/1/2
f 182/5/2 183/5/2 190/5/2
f 189/1/2 182/1/2 190/1/2
f 176/5/2 184/5/2 191/5/2
f 186/1/2 187/1/2 192/1/2
f 171/5/2 185/5/2 192/5/2
f 185/1/2 186/1/2 192/1/2
f 187/5/2 188/5/2 193/5/2
f 192/1/2 187/1/2 193/1/2
f 188/5/2 180/5/2 194/5/2
f 193/5/2 188/5/2 194/5/2
f 180/1/2 189/1/2 195/1/2
f 194/5/2 180/5/2 195/5/2
f 195/1/2 189/1/2 196/1/2
f 189/5/2 190/5/2 197/5/2
f 196/1/2 189/1/2 197/1/2
f 176/5/2 191/5/2 198/5/2
f 198/5/2 191/5/2 199/5/2
f 193/5/2 194/5/2 200/5/2
f 192/5/2 193/5/2 200/5/2
f 195/1/2 196/1/2 200/1/2
f 194/1/2 195/1/2 200/1/2
f 196/5/2 197/5/2 201/5/2
f 200/1/2 196/1/2 201/1/2
f 197/5/2 190/5/2 202/5/2
f 201/5/2 197/5/2 202/5/2
f 190/5/2 183/5/2 202/5/2
f 202/5/2 183/5/2 203/5/2
f 200/5/2 201/5/2 204/5/2
f 171/5/2 192/5/2 204/5/2
f 192/5/2 200/5/2 204/5/2
f 201/2/2 202/2/2 205/2/2
f 204/5/2 201/5/2 205/5/2
f 202/1/2 203/1/2 206/1/2
f 205/2/2 202/2/2 206/2/2
f 206/1/2 203/1/2 207/1/2
f 208/5/2 209/5/2 212/5/2
f 209/3/2 210/3/2 213/3/2
f 212/5/2 209/5/2 213/5/2
f 212/3/2 213/3/2 214/3/2
f 213/3/2 210/3/2 215/3/2
f 214/3/2 213/3/2 215/3/2
f 210/1/2 211/1/2 216/1/2
f 215/3/2 210/3/2 216/3/2
f 216/1/2 211/1/2 217/1/2
f 214/5/2 215/5/2 218/5/2
f 215/3/2 216/3/2 219/3/2
f 218/5/2 215/5/2 219/5/2
f 216/2/2 217/2/2 220/2/2
f 219/3/2 216/3/2 220/3/2
f 220/2/2 217/2/2 221/2/2
f 222/2/2 223/2/2 225/2/2
f 223/6/2 224/6/2 226/6/2
f 225/2/2 223/2/2 226/2/2
f 226/6/2 224/6/2 227/6/2
f 230/5/3 229/5/3 228/5/3
f 231/5/3 229/5/3 230/5/3
f 236/5/3 233/5/3 232/5/3
f 236/5/3 235/5/3 234/5/3
f 236/5/3 234/5/3 233/5/3
f 237/5/3 235/5/3 236/5/3
f 242/5/3 239/5/3 238/5/3
f 243/3/3 240/3/3 239/3/3
f 243/5/3 239/5/3 242/5/3
f 244/5/3 241/5/3 240/5/3
f 244/3/3 240/3/3 243/3/3
f 245/5/3 241/5/3 244/5/3
f 250/5/3 247/5/3 246/5/3
f 251/3/3 248/3/3 247/3/3
f 251/5/3 247/5/3 250/5/3
f 252/5/3 249/5/3 248/5/3
f 252/3/3 248/3/3 251/3/3
f 253/5/3 249/5/3 252/5/3
f 256/2/3 255/2/3 254/2/3
f 257/2/3 255/2/3 256/2/3
f 260/6/3 259/6/3 258/6/3
f 261/6/3 259/6/3 260/6/3
f 264/6/3 263/6/3 262/6/3
f 265/6/3 263/6/3 264/6/3
f 268/6/3 267/6/3 266/6/3
f 269/6/3 267/6/3 268/6/3
f 270/1/4 271/1/4 274/1/4
f 274/1/4 271/1/4 275/1/4
f 271/5/4 272/5/4 276/5/4
f 275/1/4 271/1/4 276/1/4
f 272/1/4 273/1/4 277/1/4
f 276/5/4 272/5/4 277/5/4
f 274/5/4 275/5/4 278/5/4
f 278/5/4 275/5/4 279/5/4
f 277/1/4 273/1/4 282/1/4
f 278/1/4 279/1/4 283/1/4
f 279/1/4 280/1/4 283/1/4
f 280/5/4 281/5/4 284/5/4
f 283/1/4 280/1/4 284/1/4
f 281/5/4 282/5/4 284/5/4
f 282/1/4 273/1/4 285/1/4
f 284/5/4 282/5/4 285/5/4
f 285/1/4 273/1/4 286/1/4
f 287/5/4 288/5/4 289/5/4
f 289/5/4 288/5/4 290/5/4
f 291/1/4 292/1/4 293/1/4
f 293/1/4 292/1/4 294/1/4
f 295/2/4 296/2/4 297/2/4
f 297/2/4 296/2/4 298/2/4
f 299/2/4 300/2/4 301/2/4
f 301/2/4 300/2/4 302/2/4
f 301/1/4 302/1/4 305/1/4
f 302/1/4 303/1/4 305/1/4
f 303/2/4 304/2/4 306/2/4
f 305/1/4 303/1/4 306/1/4
f 306/2/4 304/2/4 307/2/4
f 307/2/4 304/2/4 308/2/4
f 309/2/4 310/2/4 313/2/4
f 310/1/4 311/1/4 314/1/4
f 313/2/4 310/2/4 314/2/4
f 311/2/4 312/2/4 315/2/4
f 314/1/4 311/1/4 315/1/4
f 315/2/4 312/2/4 316/2/4
f 317/2/4 318/2/4 321/2/4
f 318/1/4 319/1/4 322/1/4
f 321/2/4 318/2/4 322/2/4
f 319/2/4 320/2/4 323/2/4
f 322/1/4 319/1/4 323/1/4
f 323/2/4 320/2/4 324/2/4
f 325/6/4 326/6/4 327/6/4
f 327/6/4 326/6/4 328/6/4
f 329/6/4 330/6/4 331/6/4
f 331/6/4 330/6/4 332/6/4
f 333/6/4 334/6/4 335/6/4
f 335/6/4 334/6/4 336/6/4
f 337/6/4 338/6/4 339/6/4
f 339/6/4 338/6/4 340/6/4
f 341/6/4 342/6/4 343/6/4
f 343/6/4 342/6/4 344/6/4
f 345/6/4 346/6/4 347/6/4
f 347/6/4 346/6/4 348/6/4
f 349/6/4 350/6/4 351/6/4
f 351/6/4 350/6/4 352/6/4
f 353/6/4 354/6/4 355/6/4
f 355/6/4 354/6/4 356/6/4
f 357/6/4 358/6/4 359/6/4
f 359/6/4 358/6/4 360/6/4
f 361/6/4 362/6/4 363/6/4
f 363/6/4 362/6/4 364/6/4
f 367/5/5 366/5/5 365/5/5
f 368/5/5 366/5/5 367/5/5
f 369/5/5 366/5/5 368/5/5
f 370/5/5 366/5/5 369/5/5
f 371/1/5 368/1/5 367/1/5
f 372/5/5 369/5/5 368/5/5
f 372/1/5 368/1/5 371/1/5
f 373/1/5 370/1/5 369/1/5
f 373/5/5 369/5/5 372/5/5
f 374/1/5 370/1/5 373/1/5
f 377/5/5 376/5/5 375/5/5
f 379/5/5 377/5/5 375/5/5
f 379/5/5 378/5/5 377/5/5
f 380/5/5 378/5/5 379/5/5
f 382/5/5 379/5/5 375/5/5
f 383/1/5 380/1/5 379/1/5
f 383/5/5 379/5/5 382/5/5
f 384/5/5 378/5/5 380/5/5
f 384/1/5 380/1/5 383/1/5
f 385/5/5 378/5/5 384/5/5
f 387/5/5 382/5/5 381/5/5
f 388/1/5 383/1/5 382/1/5
f 388/5/5 382/5/5 387/5/5
f 389/3/5 384/3/5 383/3/5
f 389/1/5 383/1/5 388/1/5
f 390/3/5 384/3/5 389/3/5
f 391/3/5 384/3/5 390/3/5
f 392/1/5 385/1/5 384/1/5
f 392/3/5 384/3/5 391/3/5
f 393/5/5 386/5/5 385/5/5
f 393/1/5 385/1/5 392/1/5
f 394/5/5 386/5/5 393/5/5
f 395/3/5 388/3/5 387/3/5
f 396/1/5 389/1/5 388/1/5
f 396/3/5 388/3/5 395/3/5
f 396/1/5 390/1/5 389/1/5
f 397/3/5 391/3/5 390/3/5
f 397/1/5 390/1/5 396/1/5
f 398/1/5 392/1/5 391/1/5
f 398/3/5 391/3/5 397/3/5
f 398/1/5 393/1/5 392/1/5
f 399/1/5 393/1/5 398/1/5
f 400/3/5 394/3/5 393/3/5
f 400/1/5 393/1/5 399/1/5
f 401/3/5 394/3/5 400/3/5
f 402/1/5 396/1/5 395/1/5
f 403/2/5 397/2/5 396/2/5
f 403/1/5 396/1/5 402/1/5
f 404/2/5 397/2/5 403/2/5
f 405/1/5 398/1/5 397/1/5
f 405/2/5 397/2/5 404/2/5
f 406/2/5 399/2/5 398/2/5
f 406/1/5 398/1/5 405/1/5
f 407/1/5 400/1/5 399/1/5
f 407/2/5 399/2/5 406/2/5
f 407/1/5 401/1/5 400/1/5
f 408/1/5 401/1/5 407/1/5
f 409/1/5 401/1/5 408/1/5
f 411/2/5 404/2/5 403/2/5
f 412/2/5 404/2/5 411/2/5
f 413/2/5 406/2/5 405/2/5
f 414/2/5 406/2/5 413/2/5
f 415/2/5 409/2/5 408/2/5
f 415/2/5 410/2/5 409/2/5
f 416/2/5 410/2/5 415/2/5
f 423/6/5 416/6/5 415/6/5
f 424/6/5 416/6/5 423/6/5
f 425/6/5 418/6/5 417/6/5
f 426/6/5 418/6/5 425/6/5
f 427/6/5 420/6/5 419/6/5
f 428/6/5 420/6/5 427/6/5
f 429/6/5 422/6/5 421/6/5
f 430/6/5 422/6/5 429/6/5
f 437/1/5 432/1/5 431/1/5
f 438/1/5 432/1/5 437/1/5
f 439/7/5 434/7/5 433/7/5
f 440/7/5 434/7/5 439/7/5
f 441/7/5 436/7/5 435/7/5
f 442/7/5 436/7/5 441/7/5
f 443/6/5 438/6/5 437/6/5
f 444/6/5 438/6/5 443/6/5
f 445/6/5 440/6/5 439/6/5
f 446/6/5 440/6/5 445/6/5
f 447/6/5 442/6/5 441/6/5
f 448/6/5 442/6/5 447/6/5
f 449/6/6 450/6/6 455/6/6
f 455/6/6 450/6/6 456/6/6
f 451/6/6 452/6/6 457/6/6
f 457/6/6 452/6/6 458/6/6
f 453/6/6 454/6/6 459/6/6
f 459/6/6 454/6/6 460/6/6
f 461/2/6 462/2/6 464/2/6
f 462/2/6 463/2/6 464/2/6
f 464/2/6 463/2/6 465/2/6
f 464/6/6 465/6/6 472/6/6
f 472/6/6 465/6/6 473/6/6
f 466/6/6 467/6/6 474/6/6
f 474/6/6 467/6/6 475/6/6
f 468/6/6 469/6/6 476/6/6
f 476/6/6 469/6/6 477/6/6
f 470/6/6 471/6/6 478/6/6
f 478/6/6 471/6/6 479/6/6
f 480/5/6 481/5/6 483/5/6
f 482/5/6 483/5/6 485/5/6
f 485/5/6 483/5/6 486/5/6
f 486/5/6 483/5/6 487/5/6
f 483/5/6 481/5/6 488/5/6
f 487/5/6 483/5/6 488/5/6
f 484/5/6 485/5/6 490/5/6
f 485/5/6 486/5/6 490/5/6
f 486/3/6 487/3/6 491/3/6
f 490/5/6 486/5/6 491/5/6
f 488/5/6 489/5/6 492/5/6
f 491/3/6 487/3/6 492/3/6
f 487/5/6 488/5/6 492/5/6
f 492/5/6 489/5/6 493/5/6
f 490/3/6 491/3/6 494/3/6
f 491/3/6 492/3/6 494/3/6
f 492/3/6 493/3/6 494/3/6
f 494/3/6 493/3/6 495/3/6
f 494/2/6 495/2/6 496/2/6
f 496/2/6 495/2/6 497/2/6
f 497/2/6 495/2/6 498/2/6
f 498/2/6 495/2/6 499/2/6
f 499/2/6 495/2/6 500/2/6
f 500/2/6 495/2/6 501/2/6
f 501/2/6 495/2/6 502/2/6
f 496/7/6 497/7/6 503/7/6
f 497/2/6 498/2/6 504/2/6
f 503/7/6 497/7/6 504/7/6
f 498/7/6 499/7/6 505/7/6
f 504/2/6 498/2/6 505/2/6
f 499/2/6 500/2/6 506/2/6
f 505/7/6 499/7/6 506/7/6
f 500/7/6 501/7/6 507/7/6
f 506/2/6 500/2/6 507/2/6
f 507/7/6 501/7/6 508/7/6
f 503/6/6 504/6/6 509/6/6
f 509/6/6 504/6/6 510/6/6
f 505/6/6 506/6/6 511/6/6
f 511/6/6 506/6/6 512/6/6
f 507/6/6 508/6/6 513/6/6
f 513/6/6 508/6/6 514/6/6
f 515/5/6 516/5/6 517/5/6
f 517/5/6 516/5/6 518/5/6
f 519/5/6 520/5/6 521/5/6
f 521/5/6 520/5/6 522/5/6
f 519/5/6 521/5/6 523/5/6
f 521/1/6 522/1/6 524/1/6
f 523/5/6 521/5/6 524/5/6
f 522/5/6 520/5/6 525/5/6
f 524/1/6 522/1/6 525/1/6
f 525/5/6 520/5/6 526/5/6
f 519/5/6 523/5/6 527/5/6
f 523/2/6 524/2/6 528/2/6
f 527/5/6 523/5/6 528/5/6
f 524/1/6 525/1/6 529/1/6
f 528/2/6 524/2/6 529/2/6
f 525/2/6 526/2/6 530/2/6
f 529/1/6 525/1/6 530/1/6
f 526/5/6 520/5/6 531/5/6
f 530/2/6 526/2/6 531/2/6
f 531/5/6 520/5/6 532/5/6
f 527/2/6 528/2/6 533/2/6
f 529/1/6 530/1/6 534/1/6
f 533/2/6 528/2/6 534/2/6
f 528/1/6 529/1/6 534/1/6
f 530/1/6 531/1/6 534/1/6
f 531/2/6 532/2/6 535/2/6
f 534/1/6 531/1/6 535/1/6
f 535/2/6 532/2/6 536/2/6
f 533/1/6 534/1/6 537/1/6
f 534/1/6 535/1/6 537/1/6
f 535/1/6 536/1/6 537/1/6
f 537/1/6 536/1/6 538/1/6
