# MagicaVoxel @ Ephtracy

# group
o 

# material
mtllib Candy_Tree.mtl
usemtl palette

# normals
vn -1 0 0
vn 1 0 0
vn 0 0 1
vn 0 0 -1
vn 0 -1 0
vn 0 1 0

# texcoords
vt 0.919922 0.5
vt 0.927734 0.5
vt 0.931641 0.5
vt 0.958984 0.5
vt 0.962891 0.5

# verts
v 1.4 3 -1.2
v 1.4 3 -2.4
v 1.4 3.3 -1.2
v 1.4 3.3 -1.3
v 1.4 3.4 -1.3
v 1.4 3.4 -1.5
v 1.4 3.5 -1.2
v 1.4 3.5 -1.4
v 1.4 3.5 -1.5
v 1.4 3.5 -1.7
v 1.4 3.6 -1.4
v 1.4 3.6 -1.6
v 1.4 3.6 -1.7
v 1.4 3.6 -2.2
v 1.4 3.6 -2.3
v 1.4 3.6 -2.4
v 1.4 3.7 -1.6
v 1.4 3.7 -2.2
v 1.4 3.7 -2.3
v 1.4 3.7 -2.4
v 1.4 4.1 -2
v 1.4 4.1 -2.4
v 1.4 4.2 -1.8
v 1.4 4.2 -2
v 1.4 4.2 -2.1
v 1.4 4.2 -2.4
v 1.4 4.3 -1.2
v 1.4 4.3 -1.5
v 1.4 4.3 -1.7
v 1.4 4.3 -1.8
v 1.4 4.3 -1.9
v 1.4 4.3 -2.1
v 1.4 4.4 -1.2
v 1.4 4.4 -1.4
v 1.4 4.4 -1.5
v 1.4 4.4 -1.7
v 1.4 4.4 -1.8
v 1.4 4.4 -1.9
v 1.4 4.5 -1.4
v 1.4 4.5 -1.5
v 1.4 4.5 -1.7
v 1.4 4.5 -1.8
v 1.4 4.6 -1.5
v 1.4 4.6 -1.7
v 1.4 4.7 -1.2
v 1.4 4.7 -2.4
v 1.7 2 -1.5
v 1.7 2 -2.1
v 1.7 2.1 -1.7
v 1.7 2.1 -2.1
v 1.7 2.2 -1.5
v 1.7 2.2 -1.7
v 1.7 2.2 -2
v 1.7 2.3 -1.5
v 1.7 2.3 -1.7
v 1.7 2.3 -2
v 1.7 2.3 -2.1
v 1.7 2.6 -1.6
v 1.7 2.6 -2.1
v 1.7 2.7 -1.6
v 1.7 2.7 -2.1
v 1.7 2.8 -2
v 1.7 2.8 -2.1
v 1.7 2.9 -2
v 1.7 2.9 -2.1
v 1.7 3 -1.5
v 1.7 3 -2.1
v 2.4 2 -1.5
v 2.4 2 -2.1
v 2.4 2.2 -1.8
v 2.4 2.2 -1.9
v 2.4 2.5 -1.7
v 2.4 2.5 -1.8
v 2.4 2.6 -1.8
v 2.4 2.6 -1.9
v 2.4 2.6 -2
v 2.4 2.6 -2.1
v 2.4 2.7 -2
v 2.4 2.7 -2.1
v 2.4 2.8 -1.7
v 2.4 2.8 -1.8
v 2.4 3 -1.5
v 2.4 3 -2.1
v 2.7 3 -1.2
v 2.7 3 -2.4
v 2.7 3.7 -1.7
v 2.7 3.7 -2.2
v 2.7 3.8 -1.2
v 2.7 3.8 -1.7
v 2.7 3.8 -1.8
v 2.7 3.8 -2.1
v 2.7 3.8 -2.2
v 2.7 3.8 -2.4
v 2.7 3.9 -1.2
v 2.7 3.9 -1.8
v 2.7 3.9 -2.1
v 2.7 3.9 -2.3
v 2.7 4 -2.3
v 2.7 4 -2.4
v 2.7 4.1 -1.2
v 2.7 4.1 -1.6
v 2.7 4.1 -2.3
v 2.7 4.1 -2.4
v 2.7 4.2 -1.2
v 2.7 4.2 -1.5
v 2.7 4.2 -1.6
v 2.7 4.2 -1.7
v 2.7 4.2 -2.2
v 2.7 4.2 -2.3
v 2.7 4.3 -1.5
v 2.7 4.3 -1.6
v 2.7 4.3 -1.7
v 2.7 4.3 -1.8
v 2.7 4.3 -2.1
v 2.7 4.3 -2.2
v 2.7 4.3 -2.3
v 2.7 4.3 -2.4
v 2.7 4.4 -1.6
v 2.7 4.4 -1.7
v 2.7 4.4 -1.8
v 2.7 4.4 -2.1
v 2.7 4.4 -2.2
v 2.7 4.4 -2.3
v 2.7 4.5 -1.7
v 2.7 4.5 -2.2
v 2.7 4.7 -1.2
v 2.7 4.7 -2.4
v 1.4 3 -1.2
v 1.4 3.3 -1.2
v 1.4 3.5 -1.2
v 1.4 4.3 -1.2
v 1.4 4.4 -1.2
v 1.4 4.7 -1.2
v 1.5 3.3 -1.2
v 1.5 3.4 -1.2
v 1.6 3.3 -1.2
v 1.6 3.4 -1.2
v 1.7 3.4 -1.2
v 1.7 3.5 -1.2
v 1.8 3.4 -1.2
v 1.8 3.5 -1.2
v 1.9 3.3 -1.2
v 1.9 3.4 -1.2
v 2 3.5 -1.2
v 2 3.6 -1.2
v 2.1 3.4 -1.2
v 2.1 3.5 -1.2
v 2.1 3.6 -1.2
v 2.1 3.7 -1.2
v 2.1 4.2 -1.2
v 2.1 4.3 -1.2
v 2.2 3.5 -1.2
v 2.2 3.6 -1.2
v 2.2 3.7 -1.2
v 2.2 3.8 -1.2
v 2.2 4.3 -1.2
v 2.2 4.4 -1.2
v 2.3 3.6 -1.2
v 2.3 3.8 -1.2
v 2.3 3.9 -1.2
v 2.4 4.1 -1.2
v 2.4 4.2 -1.2
v 2.4 4.3 -1.2
v 2.7 3 -1.2
v 2.7 3.8 -1.2
v 2.7 3.9 -1.2
v 2.7 4.1 -1.2
v 2.7 4.2 -1.2
v 2.7 4.7 -1.2
v 1.7 2 -1.5
v 1.7 2.2 -1.5
v 1.7 2.3 -1.5
v 1.7 3 -1.5
v 1.8 2.2 -1.5
v 1.8 2.3 -1.5
v 1.8 2.6 -1.5
v 1.8 2.8 -1.5
v 1.9 2.4 -1.5
v 1.9 2.6 -1.5
v 1.9 2.7 -1.5
v 1.9 2.8 -1.5
v 2 2.3 -1.5
v 2 2.4 -1.5
v 2 2.6 -1.5
v 2.1 2.2 -1.5
v 2.1 2.3 -1.5
v 2.1 2.4 -1.5
v 2.1 2.6 -1.5
v 2.1 2.7 -1.5
v 2.2 2.2 -1.5
v 2.2 2.3 -1.5
v 2.4 2 -1.5
v 2.4 3 -1.5
v 1.7 2 -2.1
v 1.7 2.1 -2.1
v 1.7 2.3 -2.1
v 1.7 2.6 -2.1
v 1.7 2.7 -2.1
v 1.7 2.8 -2.1
v 1.7 2.9 -2.1
v 1.7 3 -2.1
v 1.8 2.1 -2.1
v 1.8 2.2 -2.1
v 1.8 2.6 -2.1
v 1.8 2.7 -2.1
v 1.8 2.8 -2.1
v 1.9 2.8 -2.1
v 1.9 2.9 -2.1
v 2 2.3 -2.1
v 2 2.4 -2.1
v 2 2.6 -2.1
v 2 2.7 -2.1
v 2.1 2.2 -2.1
v 2.1 2.3 -2.1
v 2.1 2.7 -2.1
v 2.1 2.8 -2.1
v 2.2 2.4 -2.1
v 2.2 2.5 -2.1
v 2.3 2.3 -2.1
v 2.3 2.5 -2.1
v 2.4 2 -2.1
v 2.4 2.6 -2.1
v 2.4 2.7 -2.1
v 2.4 3 -2.1
v 1.4 3 -2.4
v 1.4 3.6 -2.4
v 1.4 3.7 -2.4
v 1.4 4.1 -2.4
v 1.4 4.2 -2.4
v 1.4 4.7 -2.4
v 1.6 3.7 -2.4
v 1.6 3.8 -2.4
v 1.7 3.6 -2.4
v 1.7 3.7 -2.4
v 1.8 4.2 -2.4
v 1.8 4.3 -2.4
v 1.9 4.1 -2.4
v 1.9 4.2 -2.4
v 2.1 4.3 -2.4
v 2.1 4.4 -2.4
v 2.2 3.8 -2.4
v 2.2 3.9 -2.4
v 2.2 4.3 -2.4
v 2.2 4.4 -2.4
v 2.3 3.7 -2.4
v 2.3 3.8 -2.4
v 2.3 4.1 -2.4
v 2.3 4.2 -2.4
v 2.4 4.2 -2.4
v 2.4 4.3 -2.4
v 2.5 3.9 -2.4
v 2.5 4 -2.4
v 2.6 4.2 -2.4
v 2.6 4.3 -2.4
v 2.7 3 -2.4
v 2.7 3.8 -2.4
v 2.7 4 -2.4
v 2.7 4.1 -2.4
v 2.7 4.3 -2.4
v 2.7 4.7 -2.4
v 1.7 2 -1.5
v 2.4 2 -1.5
v 1.7 2 -2.1
v 2.4 2 -2.1
v 1.4 3 -1.2
v 2.7 3 -1.2
v 1.5 3 -1.3
v 2.6 3 -1.3
v 1.7 3 -1.5
v 2.4 3 -1.5
v 1.7 3 -2.1
v 2.4 3 -2.1
v 1.5 3 -2.3
v 2.6 3 -2.3
v 1.4 3 -2.4
v 2.7 3 -2.4
v 1.4 4.7 -1.2
v 2.7 4.7 -1.2
v 1.4 4.7 -2.4
v 2.7 4.7 -2.4

# faces
f 3/3/1 2/3/1 1/3/1
f 4/3/1 2/3/1 3/3/1
f 5/1/1 4/1/1 3/1/1
f 5/3/1 2/3/1 4/3/1
f 6/3/1 2/3/1 5/3/1
f 7/1/1 5/1/1 3/1/1
f 7/1/1 6/1/1 5/1/1
f 8/1/1 6/1/1 7/1/1
f 9/3/1 2/3/1 6/3/1
f 9/1/1 6/1/1 8/1/1
f 10/3/1 2/3/1 9/3/1
f 11/3/1 8/3/1 7/3/1
f 11/1/1 9/1/1 8/1/1
f 11/1/1 10/1/1 9/1/1
f 12/1/1 10/1/1 11/1/1
f 13/3/1 2/3/1 10/3/1
f 13/1/1 10/1/1 12/1/1
f 14/3/1 2/3/1 13/3/1
f 15/3/1 2/3/1 14/3/1
f 16/3/1 2/3/1 15/3/1
f 17/3/1 12/3/1 11/3/1
f 17/1/1 13/1/1 12/1/1
f 17/1/1 14/1/1 13/1/1
f 18/3/1 15/3/1 14/3/1
f 18/1/1 14/1/1 17/1/1
f 19/1/1 16/1/1 15/1/1
f 19/3/1 15/3/1 18/3/1
f 20/1/1 16/1/1 19/1/1
f 21/3/1 18/3/1 17/3/1
f 21/3/1 19/3/1 18/3/1
f 21/3/1 20/3/1 19/3/1
f 22/3/1 20/3/1 21/3/1
f 23/3/1 21/3/1 17/3/1
f 24/1/1 22/1/1 21/1/1
f 24/3/1 21/3/1 23/3/1
f 25/1/1 22/1/1 24/1/1
f 26/1/1 22/1/1 25/1/1
f 27/3/1 11/3/1 7/3/1
f 27/3/1 17/3/1 11/3/1
f 27/3/1 23/3/1 17/3/1
f 28/3/1 23/3/1 27/3/1
f 29/3/1 23/3/1 28/3/1
f 30/1/1 25/1/1 24/1/1
f 30/3/1 23/3/1 29/3/1
f 30/1/1 24/1/1 23/1/1
f 31/1/1 25/1/1 30/1/1
f 32/3/1 26/3/1 25/3/1
f 32/1/1 25/1/1 31/1/1
f 33/1/1 28/1/1 27/1/1
f 34/1/1 28/1/1 33/1/1
f 35/3/1 29/3/1 28/3/1
f 35/1/1 28/1/1 34/1/1
f 36/1/1 31/1/1 30/1/1
f 36/3/1 29/3/1 35/3/1
f 36/1/1 30/1/1 29/1/1
f 37/1/1 31/1/1 36/1/1
f 38/3/1 32/3/1 31/3/1
f 38/1/1 31/1/1 37/1/1
f 39/1/1 35/1/1 34/1/1
f 39/3/1 34/3/1 33/3/1
f 39/1/1 37/1/1 36/1/1
f 39/1/1 36/1/1 35/1/1
f 40/1/1 37/1/1 39/1/1
f 41/1/1 37/1/1 40/1/1
f 42/3/1 38/3/1 37/3/1
f 42/1/1 37/1/1 41/1/1
f 43/1/1 41/1/1 40/1/1
f 43/3/1 40/3/1 39/3/1
f 44/3/1 42/3/1 41/3/1
f 44/1/1 41/1/1 43/1/1
f 45/3/1 39/3/1 33/3/1
f 45/3/1 43/3/1 39/3/1
f 45/3/1 44/3/1 43/3/1
f 46/3/1 32/3/1 38/3/1
f 46/3/1 44/3/1 45/3/1
f 46/3/1 38/3/1 42/3/1
f 46/3/1 42/3/1 44/3/1
f 46/3/1 26/3/1 32/3/1
f 49/4/1 48/4/1 47/4/1
f 50/4/1 48/4/1 49/4/1
f 51/4/1 49/4/1 47/4/1
f 52/5/1 50/5/1 49/5/1
f 52/4/1 49/4/1 51/4/1
f 53/5/1 50/5/1 52/5/1
f 54/5/1 52/5/1 51/5/1
f 55/4/1 53/4/1 52/4/1
f 55/5/1 52/5/1 54/5/1
f 56/5/1 50/5/1 53/5/1
f 56/4/1 53/4/1 55/4/1
f 57/5/1 50/5/1 56/5/1
f 58/4/1 55/4/1 54/4/1
f 58/4/1 56/4/1 55/4/1
f 58/4/1 57/4/1 56/4/1
f 59/4/1 57/4/1 58/4/1
f 60/4/1 58/4/1 54/4/1
f 60/5/1 59/5/1 58/5/1
f 61/5/1 59/5/1 60/5/1
f 62/4/1 61/4/1 60/4/1
f 63/4/1 61/4/1 62/4/1
f 64/4/1 62/4/1 60/4/1
f 64/5/1 63/5/1 62/5/1
f 65/5/1 63/5/1 64/5/1
f 66/4/1 60/4/1 54/4/1
f 66/4/1 64/4/1 60/4/1
f 66/4/1 65/4/1 64/4/1
f 67/4/1 65/4/1 66/4/1
f 68/4/2 69/4/2 70/4/2
f 70/4/2 69/4/2 71/4/2
f 68/4/2 70/4/2 72/4/2
f 70/5/2 71/5/2 73/5/2
f 72/4/2 70/4/2 73/4/2
f 72/5/2 73/5/2 74/5/2
f 73/5/2 71/5/2 74/5/2
f 71/4/2 69/4/2 75/4/2
f 74/5/2 71/5/2 75/5/2
f 75/4/2 69/4/2 76/4/2
f 76/4/2 69/4/2 77/4/2
f 74/4/2 75/4/2 78/4/2
f 75/4/2 76/4/2 78/4/2
f 76/5/2 77/5/2 78/5/2
f 78/5/2 77/5/2 79/5/2
f 72/5/2 74/5/2 80/5/2
f 68/4/2 72/4/2 80/4/2
f 78/4/2 79/4/2 81/4/2
f 80/5/2 74/5/2 81/5/2
f 74/4/2 78/4/2 81/4/2
f 68/4/2 80/4/2 82/4/2
f 80/4/2 81/4/2 82/4/2
f 81/4/2 79/4/2 83/4/2
f 82/4/2 81/4/2 83/4/2
f 84/3/2 85/3/2 86/3/2
f 86/3/2 85/3/2 87/3/2
f 84/3/2 86/3/2 88/3/2
f 86/1/2 87/1/2 89/1/2
f 88/3/2 86/3/2 89/3/2
f 89/1/2 87/1/2 90/1/2
f 90/1/2 87/1/2 91/1/2
f 87/3/2 85/3/2 92/3/2
f 91/1/2 87/1/2 92/1/2
f 92/3/2 85/3/2 93/3/2
f 88/1/2 89/1/2 94/1/2
f 89/1/2 90/1/2 94/1/2
f 90/3/2 91/3/2 95/3/2
f 94/1/2 90/1/2 95/1/2
f 92/1/2 93/1/2 96/1/2
f 95/3/2 91/3/2 96/3/2
f 91/1/2 92/1/2 96/1/2
f 96/1/2 93/1/2 97/1/2
f 94/3/2 95/3/2 98/3/2
f 97/1/2 93/1/2 98/1/2
f 96/3/2 97/3/2 98/3/2
f 95/3/2 96/3/2 98/3/2
f 98/1/2 93/1/2 99/1/2
f 94/3/2 98/3/2 100/3/2
f 98/3/2 99/3/2 100/3/2
f 100/3/2 99/3/2 101/3/2
f 101/3/2 99/3/2 102/3/2
f 102/3/2 99/3/2 103/3/2
f 100/1/2 101/1/2 104/1/2
f 104/1/2 101/1/2 105/1/2
f 101/3/2 102/3/2 106/3/2
f 105/1/2 101/1/2 106/1/2
f 106/3/2 102/3/2 107/3/2
f 107/3/2 102/3/2 108/3/2
f 102/1/2 103/1/2 109/1/2
f 108/3/2 102/3/2 109/3/2
f 104/3/2 105/3/2 110/3/2
f 105/1/2 106/1/2 110/1/2
f 106/1/2 107/1/2 110/1/2
f 110/1/2 107/1/2 111/1/2
f 107/3/2 108/3/2 112/3/2
f 111/1/2 107/1/2 112/1/2
f 112/3/2 108/3/2 113/3/2
f 113/3/2 108/3/2 114/3/2
f 108/1/2 109/1/2 115/1/2
f 114/3/2 108/3/2 115/3/2
f 109/1/2 103/1/2 116/1/2
f 115/1/2 109/1/2 116/1/2
f 116/1/2 103/1/2 117/1/2
f 110/3/2 111/3/2 118/3/2
f 111/1/2 112/1/2 118/1/2
f 112/1/2 113/1/2 118/1/2
f 118/1/2 113/1/2 119/1/2
f 113/3/2 114/3/2 120/3/2
f 119/1/2 113/1/2 120/1/2
f 114/1/2 115/1/2 121/1/2
f 120/3/2 114/3/2 121/3/2
f 115/1/2 116/1/2 121/1/2
f 121/1/2 116/1/2 122/1/2
f 116/3/2 117/3/2 123/3/2
f 122/1/2 116/1/2 123/1/2
f 119/1/2 120/1/2 124/1/2
f 118/3/2 119/3/2 124/3/2
f 121/1/2 122/1/2 124/1/2
f 120/1/2 121/1/2 124/1/2
f 122/3/2 123/3/2 125/3/2
f 124/1/2 122/1/2 125/1/2
f 118/3/2 124/3/2 126/3/2
f 104/3/2 110/3/2 126/3/2
f 124/3/2 125/3/2 126/3/2
f 110/3/2 118/3/2 126/3/2
f 123/3/2 117/3/2 127/3/2
f 126/3/2 125/3/2 127/3/2
f 125/3/2 123/3/2 127/3/2
f 134/3/3 129/3/3 128/3/3
f 134/1/3 130/1/3 129/1/3
f 135/1/3 130/1/3 134/1/3
f 136/3/3 134/3/3 128/3/3
f 136/3/3 135/3/3 134/3/3
f 137/1/3 130/1/3 135/1/3
f 137/3/3 135/3/3 136/3/3
f 138/1/3 137/1/3 136/1/3
f 138/1/3 130/1/3 137/1/3
f 139/3/3 131/3/3 130/3/3
f 139/1/3 130/1/3 138/1/3
f 140/1/3 138/1/3 136/1/3
f 140/3/3 139/3/3 138/3/3
f 141/3/3 131/3/3 139/3/3
f 141/3/3 139/3/3 140/3/3
f 142/1/3 140/1/3 136/1/3
f 142/3/3 136/3/3 128/3/3
f 142/1/3 141/1/3 140/1/3
f 143/1/3 141/1/3 142/1/3
f 144/3/3 131/3/3 141/3/3
f 144/1/3 141/1/3 143/1/3
f 145/3/3 131/3/3 144/3/3
f 146/3/3 143/3/3 142/3/3
f 146/1/3 144/1/3 143/1/3
f 146/1/3 145/1/3 144/1/3
f 147/1/3 145/1/3 146/1/3
f 148/3/3 131/3/3 145/3/3
f 148/1/3 145/1/3 147/1/3
f 149/3/3 131/3/3 148/3/3
f 150/3/3 131/3/3 149/3/3
f 151/1/3 132/1/3 131/1/3
f 151/3/3 131/3/3 150/3/3
f 152/3/3 147/3/3 146/3/3
f 152/1/3 148/1/3 147/1/3
f 152/1/3 149/1/3 148/1/3
f 153/1/3 149/1/3 152/1/3
f 154/3/3 150/3/3 149/3/3
f 154/1/3 149/1/3 153/1/3
f 155/3/3 150/3/3 154/3/3
f 156/1/3 132/1/3 151/1/3
f 156/1/3 151/1/3 150/1/3
f 157/3/3 133/3/3 132/3/3
f 157/1/3 132/1/3 156/1/3
f 158/3/3 153/3/3 152/3/3
f 158/1/3 155/1/3 154/1/3
f 158/1/3 154/1/3 153/1/3
f 159/3/3 150/3/3 155/3/3
f 159/1/3 155/1/3 158/1/3
f 160/3/3 150/3/3 159/3/3
f 161/3/3 150/3/3 160/3/3
f 162/1/3 156/1/3 150/1/3
f 162/3/3 150/3/3 161/3/3
f 163/3/3 157/3/3 156/3/3
f 163/1/3 156/1/3 162/1/3
f 164/3/3 158/3/3 152/3/3
f 164/3/3 142/3/3 128/3/3
f 164/3/3 146/3/3 142/3/3
f 164/3/3 152/3/3 146/3/3
f 164/3/3 159/3/3 158/3/3
f 165/1/3 160/1/3 159/1/3
f 165/3/3 159/3/3 164/3/3
f 166/3/3 161/3/3 160/3/3
f 166/1/3 160/1/3 165/1/3
f 167/1/3 162/1/3 161/1/3
f 167/3/3 161/3/3 166/3/3
f 168/3/3 163/3/3 162/3/3
f 168/1/3 162/1/3 167/1/3
f 169/3/3 133/3/3 157/3/3
f 169/3/3 163/3/3 168/3/3
f 169/3/3 157/3/3 163/3/3
f 174/4/3 171/4/3 170/4/3
f 174/5/3 172/5/3 171/5/3
f 175/4/3 173/4/3 172/4/3
f 175/5/3 172/5/3 174/5/3
f 176/4/3 173/4/3 175/4/3
f 177/4/3 173/4/3 176/4/3
f 178/4/3 175/4/3 174/4/3
f 178/4/3 176/4/3 175/4/3
f 179/5/3 177/5/3 176/5/3
f 179/4/3 176/4/3 178/4/3
f 180/5/3 177/5/3 179/5/3
f 181/4/3 173/4/3 177/4/3
f 181/5/3 177/5/3 180/5/3
f 182/4/3 178/4/3 174/4/3
f 183/5/3 180/5/3 179/5/3
f 183/4/3 178/4/3 182/4/3
f 183/5/3 179/5/3 178/5/3
f 184/5/3 180/5/3 183/5/3
f 185/4/3 174/4/3 170/4/3
f 185/4/3 182/4/3 174/4/3
f 186/5/3 183/5/3 182/5/3
f 186/4/3 182/4/3 185/4/3
f 187/4/3 184/4/3 183/4/3
f 187/5/3 183/5/3 186/5/3
f 188/5/3 180/5/3 184/5/3
f 188/4/3 184/4/3 187/4/3
f 189/4/3 181/4/3 180/4/3
f 189/5/3 180/5/3 188/5/3
f 190/5/3 186/5/3 185/5/3
f 190/4/3 185/4/3 170/4/3
f 191/4/3 187/4/3 186/4/3
f 191/5/3 186/5/3 190/5/3
f 191/4/3 188/4/3 187/4/3
f 191/4/3 189/4/3 188/4/3
f 192/4/3 190/4/3 170/4/3
f 192/4/3 191/4/3 190/4/3
f 193/4/3 189/4/3 191/4/3
f 193/4/3 191/4/3 192/4/3
f 193/4/3 181/4/3 189/4/3
f 193/4/3 173/4/3 181/4/3
f 194/4/4 195/4/4 202/4/4
f 195/5/4 196/5/4 202/5/4
f 202/5/4 196/5/4 203/5/4
f 196/4/4 197/4/4 204/4/4
f 197/5/4 198/5/4 204/5/4
f 198/4/4 199/4/4 205/4/4
f 204/5/4 198/5/4 205/5/4
f 199/5/4 200/5/4 206/5/4
f 205/4/4 199/4/4 206/4/4
f 205/5/4 206/5/4 207/5/4
f 206/5/4 200/5/4 207/5/4
f 200/4/4 201/4/4 208/4/4
f 207/5/4 200/5/4 208/5/4
f 204/4/4 205/4/4 209/4/4
f 203/5/4 196/5/4 209/5/4
f 196/4/4 204/4/4 209/4/4
f 209/4/4 205/4/4 210/4/4
f 210/4/4 205/4/4 211/4/4
f 205/5/4 207/5/4 212/5/4
f 211/4/4 205/4/4 212/4/4
f 202/4/4 203/4/4 213/4/4
f 203/5/4 209/5/4 213/5/4
f 209/5/4 210/5/4 213/5/4
f 213/5/4 210/5/4 214/5/4
f 212/5/4 207/5/4 215/5/4
f 211/5/4 212/5/4 215/5/4
f 207/4/4 208/4/4 216/4/4
f 215/5/4 207/5/4 216/5/4
f 210/4/4 211/4/4 217/4/4
f 214/5/4 210/5/4 217/5/4
f 217/4/4 211/4/4 218/4/4
f 213/4/4 214/4/4 219/4/4
f 214/5/4 217/5/4 219/5/4
f 217/5/4 218/5/4 219/5/4
f 218/4/4 211/4/4 220/4/4
f 219/5/4 218/5/4 220/5/4
f 194/4/4 202/4/4 221/4/4
f 213/4/4 219/4/4 221/4/4
f 219/4/4 220/4/4 221/4/4
f 202/4/4 213/4/4 221/4/4
f 211/5/4 215/5/4 222/5/4
f 221/4/4 220/4/4 222/4/4
f 220/4/4 211/4/4 222/4/4
f 215/4/4 216/4/4 223/4/4
f 222/5/4 215/5/4 223/5/4
f 216/4/4 208/4/4 224/4/4
f 223/4/4 216/4/4 224/4/4
f 208/4/4 201/4/4 224/4/4
f 226/1/4 227/1/4 231/1/4
f 227/3/4 228/3/4 231/3/4
f 231/3/4 228/3/4 232/3/4
f 225/3/4 226/3/4 233/3/4
f 226/1/4 231/1/4 233/1/4
f 231/1/4 232/1/4 233/1/4
f 233/1/4 232/1/4 234/1/4
f 229/3/4 230/3/4 235/3/4
f 228/1/4 229/1/4 235/1/4
f 235/3/4 230/3/4 236/3/4
f 232/3/4 228/3/4 237/3/4
f 228/1/4 235/1/4 237/1/4
f 235/1/4 236/1/4 237/1/4
f 237/1/4 236/1/4 238/1/4
f 236/3/4 230/3/4 239/3/4
f 238/1/4 236/1/4 239/1/4
f 239/3/4 230/3/4 240/3/4
f 237/3/4 238/3/4 241/3/4
f 234/1/4 232/1/4 241/1/4
f 232/3/4 237/3/4 241/3/4
f 241/3/4 238/3/4 242/3/4
f 239/1/4 240/1/4 243/1/4
f 238/1/4 239/1/4 243/1/4
f 240/3/4 230/3/4 244/3/4
f 243/1/4 240/1/4 244/1/4
f 233/3/4 234/3/4 245/3/4
f 241/1/4 242/1/4 245/1/4
f 234/1/4 241/1/4 245/1/4
f 245/1/4 242/1/4 246/1/4
f 242/3/4 238/3/4 247/3/4
f 238/1/4 243/1/4 248/1/4
f 247/3/4 238/3/4 248/3/4
f 247/1/4 248/1/4 249/1/4
f 248/1/4 243/1/4 249/1/4
f 243/3/4 244/3/4 250/3/4
f 249/1/4 243/1/4 250/1/4
f 242/3/4 247/3/4 251/3/4
f 246/1/4 242/1/4 251/1/4
f 251/3/4 247/3/4 252/3/4
f 249/3/4 250/3/4 253/3/4
f 247/1/4 249/1/4 253/1/4
f 250/3/4 244/3/4 254/3/4
f 253/3/4 250/3/4 254/3/4
f 225/3/4 233/3/4 255/3/4
f 233/3/4 245/3/4 255/3/4
f 245/3/4 246/3/4 255/3/4
f 251/1/4 252/1/4 256/1/4
f 255/3/4 246/3/4 256/3/4
f 246/1/4 251/1/4 256/1/4
f 252/3/4 247/3/4 257/3/4
f 256/1/4 252/1/4 257/1/4
f 247/1/4 253/1/4 258/1/4
f 257/3/4 247/3/4 258/3/4
f 253/1/4 254/1/4 258/1/4
f 254/3/4 244/3/4 259/3/4
f 258/1/4 254/1/4 259/1/4
f 244/3/4 230/3/4 260/3/4
f 259/3/4 244/3/4 260/3/4
f 263/4/5 262/4/5 261/4/5
f 264/4/5 262/4/5 263/4/5
f 267/3/5 266/3/5 265/3/5
f 268/3/5 266/3/5 267/3/5
f 269/2/5 268/2/5 267/2/5
f 270/2/5 268/2/5 269/2/5
f 271/2/5 269/2/5 267/2/5
f 272/2/5 268/2/5 270/2/5
f 273/3/5 267/3/5 265/3/5
f 273/2/5 272/2/5 271/2/5
f 273/2/5 271/2/5 267/2/5
f 274/2/5 268/2/5 272/2/5
f 274/2/5 272/2/5 273/2/5
f 274/3/5 266/3/5 268/3/5
f 275/3/5 273/3/5 265/3/5
f 275/3/5 274/3/5 273/3/5
f 276/3/5 266/3/5 274/3/5
f 276/3/5 274/3/5 275/3/5
f 277/3/6 278/3/6 279/3/6
f 279/3/6 278/3/6 280/3/6
