# MagicaVoxel @ Ephtracy

# group
o 

# material
mtllib Candy_man_foot.mtl
usemtl palette

# normals
vn -1 0 0
vn 1 0 0
vn 0 0 1
vn 0 0 -1
vn 0 -1 0
vn 0 1 0

# texcoords
vt 0.845703 0.5
vt 0.849609 0.5
vt 0.853516 0.5
vt 0.857422 0.5
vt 0.958984 0.5

# verts
v 0.9 2.4 -1.2
v 0.9 2.4 -1.3
v 0.9 2.4 -2.1
v 0.9 2.4 -2.2
v 0.9 2.5 -1.2
v 0.9 2.5 -1.3
v 0.9 2.5 -1.4
v 0.9 2.6 -1.3
v 0.9 2.6 -1.4
v 0.9 2.6 -1.5
v 0.9 2.6 -2
v 0.9 2.6 -2.1
v 0.9 2.6 -2.2
v 0.9 2.7 -1.4
v 0.9 2.7 -1.5
v 0.9 2.7 -2
v 0.9 2.7 -2.1
v 0.9 2.8 -1.5
v 0.9 2.8 -2
v 1 2.4 -1.1
v 1 2.4 -1.2
v 1 2.5 -1.1
v 1 2.5 -1.2
v 1 2.5 -1.3
v 1 2.6 -1.2
v 1 2.6 -1.3
v 1 2.6 -1.4
v 1 2.7 -1.3
v 1 2.7 -1.4
v 1 2.7 -1.5
v 1 2.8 -1.4
v 1 2.8 -1.5
v 1 2.8 -1.6
v 1 2.8 -2
v 1 2.9 -1.5
v 1 2.9 -1.6
v 1 2.9 -2
v 1.3 2.4 -1.5
v 1.3 2.4 -1.7
v 1.3 2.4 -1.8
v 1.3 2.4 -2
v 1.3 2.5 -1.5
v 1.3 2.5 -1.7
v 1.3 2.5 -1.8
v 1.3 2.5 -2
v 1.1 2.4 -1.5
v 1.1 2.4 -1.7
v 1.1 2.4 -1.8
v 1.1 2.4 -2
v 1.1 2.5 -1.5
v 1.1 2.5 -1.7
v 1.1 2.5 -1.8
v 1.1 2.5 -2
v 1.4 2.4 -1.1
v 1.4 2.4 -1.2
v 1.4 2.5 -1.1
v 1.4 2.5 -1.2
v 1.4 2.5 -1.3
v 1.4 2.6 -1.2
v 1.4 2.6 -1.3
v 1.4 2.6 -1.4
v 1.4 2.7 -1.3
v 1.4 2.7 -1.4
v 1.4 2.7 -1.5
v 1.4 2.8 -1.4
v 1.4 2.8 -1.5
v 1.4 2.8 -1.6
v 1.4 2.8 -2
v 1.4 2.9 -1.5
v 1.4 2.9 -1.6
v 1.4 2.9 -2
v 1.5 2.4 -1.2
v 1.5 2.4 -1.3
v 1.5 2.4 -2.1
v 1.5 2.4 -2.2
v 1.5 2.5 -1.2
v 1.5 2.5 -1.3
v 1.5 2.5 -1.4
v 1.5 2.6 -1.3
v 1.5 2.6 -1.4
v 1.5 2.6 -1.5
v 1.5 2.6 -2
v 1.5 2.6 -2.1
v 1.5 2.6 -2.2
v 1.5 2.7 -1.4
v 1.5 2.7 -1.5
v 1.5 2.7 -2
v 1.5 2.7 -2.1
v 1.5 2.8 -1.5
v 1.5 2.8 -2
v 1 2.4 -1.1
v 1 2.5 -1.1
v 1.4 2.4 -1.1
v 1.4 2.5 -1.1
v 0.9 2.4 -1.2
v 0.9 2.5 -1.2
v 1 2.4 -1.2
v 1 2.5 -1.2
v 1 2.6 -1.2
v 1.4 2.4 -1.2
v 1.4 2.5 -1.2
v 1.4 2.6 -1.2
v 1.5 2.4 -1.2
v 1.5 2.5 -1.2
v 0.9 2.5 -1.3
v 0.9 2.6 -1.3
v 1 2.5 -1.3
v 1 2.6 -1.3
v 1 2.7 -1.3
v 1.4 2.5 -1.3
v 1.4 2.6 -1.3
v 1.4 2.7 -1.3
v 1.5 2.5 -1.3
v 1.5 2.6 -1.3
v 0.9 2.6 -1.4
v 0.9 2.7 -1.4
v 1 2.6 -1.4
v 1 2.7 -1.4
v 1 2.8 -1.4
v 1.4 2.6 -1.4
v 1.4 2.7 -1.4
v 1.4 2.8 -1.4
v 1.5 2.6 -1.4
v 1.5 2.7 -1.4
v 0.9 2.7 -1.5
v 0.9 2.8 -1.5
v 1 2.7 -1.5
v 1 2.8 -1.5
v 1 2.9 -1.5
v 1.4 2.7 -1.5
v 1.4 2.8 -1.5
v 1.4 2.9 -1.5
v 1.5 2.7 -1.5
v 1.5 2.8 -1.5
v 1.1 2.4 -1.7
v 1.1 2.5 -1.7
v 1.3 2.4 -1.7
v 1.3 2.5 -1.7
v 1.1 2.4 -2
v 1.1 2.5 -2
v 1.3 2.4 -2
v 1.3 2.5 -2
v 1.1 2.4 -1.5
v 1.1 2.5 -1.5
v 1.3 2.4 -1.5
v 1.3 2.5 -1.5
v 1.1 2.4 -1.8
v 1.1 2.5 -1.8
v 1.3 2.4 -1.8
v 1.3 2.5 -1.8
v 0.9 2.7 -2
v 0.9 2.8 -2
v 1 2.7 -2
v 1 2.8 -2
v 1 2.9 -2
v 1.1 2.8 -2
v 1.1 2.9 -2
v 1.3 2.8 -2
v 1.3 2.9 -2
v 1.4 2.7 -2
v 1.4 2.8 -2
v 1.4 2.9 -2
v 1.5 2.7 -2
v 1.5 2.8 -2
v 0.9 2.6 -2.1
v 0.9 2.7 -2.1
v 1 2.6 -2.1
v 1 2.7 -2.1
v 1.4 2.6 -2.1
v 1.4 2.7 -2.1
v 1.5 2.6 -2.1
v 1.5 2.7 -2.1
v 0.9 2.4 -2.2
v 0.9 2.6 -2.2
v 1 2.5 -2.2
v 1 2.6 -2.2
v 1.4 2.5 -2.2
v 1.4 2.6 -2.2
v 1.5 2.4 -2.2
v 1.5 2.6 -2.2
v 1 2.4 -1.1
v 1.4 2.4 -1.1
v 0.9 2.4 -1.2
v 1 2.4 -1.2
v 1.4 2.4 -1.2
v 1.5 2.4 -1.2
v 0.9 2.4 -1.3
v 1 2.4 -1.3
v 1.4 2.4 -1.3
v 1.5 2.4 -1.3
v 1.1 2.4 -1.4
v 1.3 2.4 -1.4
v 1.1 2.4 -1.5
v 1.3 2.4 -1.5
v 1.1 2.4 -1.7
v 1.3 2.4 -1.7
v 1.1 2.4 -1.8
v 1.3 2.4 -1.8
v 1.1 2.4 -2
v 1.3 2.4 -2
v 0.9 2.4 -2.1
v 1 2.4 -2.1
v 1.1 2.4 -2.1
v 1.3 2.4 -2.1
v 1.4 2.4 -2.1
v 1.5 2.4 -2.1
v 0.9 2.4 -2.2
v 1.5 2.4 -2.2
v 1.1 2.5 -1.5
v 1.3 2.5 -1.5
v 1.1 2.5 -1.7
v 1.3 2.5 -1.7
v 1.1 2.5 -1.8
v 1.3 2.5 -1.8
v 1.1 2.5 -2
v 1.3 2.5 -2
v 1 2.5 -1.1
v 1.4 2.5 -1.1
v 0.9 2.5 -1.2
v 1 2.5 -1.2
v 1.4 2.5 -1.2
v 1.5 2.5 -1.2
v 0.9 2.5 -1.3
v 1 2.5 -1.3
v 1.4 2.5 -1.3
v 1.5 2.5 -1.3
v 1 2.6 -1.2
v 1.4 2.6 -1.2
v 0.9 2.6 -1.3
v 1 2.6 -1.3
v 1.4 2.6 -1.3
v 1.5 2.6 -1.3
v 0.9 2.6 -1.4
v 1 2.6 -1.4
v 1.4 2.6 -1.4
v 1.5 2.6 -1.4
v 0.9 2.6 -2.1
v 1 2.6 -2.1
v 1.4 2.6 -2.1
v 1.5 2.6 -2.1
v 0.9 2.6 -2.2
v 1 2.6 -2.2
v 1.4 2.6 -2.2
v 1.5 2.6 -2.2
v 1 2.7 -1.3
v 1.4 2.7 -1.3
v 0.9 2.7 -1.4
v 1 2.7 -1.4
v 1.4 2.7 -1.4
v 1.5 2.7 -1.4
v 0.9 2.7 -1.5
v 1 2.7 -1.5
v 1.4 2.7 -1.5
v 1.5 2.7 -1.5
v 0.9 2.7 -2
v 1 2.7 -2
v 1.4 2.7 -2
v 1.5 2.7 -2
v 0.9 2.7 -2.1
v 1 2.7 -2.1
v 1.4 2.7 -2.1
v 1.5 2.7 -2.1
v 1 2.8 -1.4
v 1.4 2.8 -1.4
v 0.9 2.8 -1.5
v 1 2.8 -1.5
v 1.4 2.8 -1.5
v 1.5 2.8 -1.5
v 1 2.8 -1.6
v 1.4 2.8 -1.6
v 0.9 2.8 -2
v 1 2.8 -2
v 1.4 2.8 -2
v 1.5 2.8 -2
v 1 2.9 -1.5
v 1.4 2.9 -1.5
v 1 2.9 -1.6
v 1.1 2.9 -1.6
v 1.3 2.9 -1.6
v 1.4 2.9 -1.6
v 1 2.9 -2
v 1.1 2.9 -2
v 1.3 2.9 -2
v 1.4 2.9 -2

# faces
f 5/1/1 2/1/1 1/1/1
f 6/5/1 3/5/1 2/5/1
f 6/1/1 2/1/1 5/1/1
f 7/5/1 3/5/1 6/5/1
f 8/1/1 7/1/1 6/1/1
f 9/5/1 3/5/1 7/5/1
f 9/1/1 7/1/1 8/1/1
f 10/5/1 3/5/1 9/5/1
f 11/5/1 3/5/1 10/5/1
f 12/1/1 4/1/1 3/1/1
f 12/5/1 3/5/1 11/5/1
f 13/1/1 4/1/1 12/1/1
f 14/1/1 10/1/1 9/1/1
f 15/5/1 11/5/1 10/5/1
f 15/1/1 10/1/1 14/1/1
f 16/1/1 12/1/1 11/1/1
f 16/5/1 11/5/1 15/5/1
f 17/1/1 12/1/1 16/1/1
f 18/1/1 16/1/1 15/1/1
f 19/1/1 16/1/1 18/1/1
f 22/1/1 21/1/1 20/1/1
f 23/1/1 21/1/1 22/1/1
f 25/2/1 24/2/1 23/2/1
f 26/2/1 24/2/1 25/2/1
f 28/5/1 27/5/1 26/5/1
f 29/5/1 27/5/1 28/5/1
f 31/5/1 30/5/1 29/5/1
f 32/5/1 30/5/1 31/5/1
f 35/5/1 33/5/1 32/5/1
f 36/2/1 34/2/1 33/2/1
f 36/5/1 33/5/1 35/5/1
f 37/2/1 34/2/1 36/2/1
f 42/4/1 39/4/1 38/4/1
f 43/4/1 39/4/1 42/4/1
f 44/4/1 41/4/1 40/4/1
f 45/4/1 41/4/1 44/4/1
f 46/4/2 47/4/2 50/4/2
f 50/4/2 47/4/2 51/4/2
f 48/4/2 49/4/2 52/4/2
f 52/4/2 49/4/2 53/4/2
f 54/1/2 55/1/2 56/1/2
f 56/1/2 55/1/2 57/1/2
f 57/2/2 58/2/2 59/2/2
f 59/2/2 58/2/2 60/2/2
f 60/5/2 61/5/2 62/5/2
f 62/5/2 61/5/2 63/5/2
f 63/5/2 64/5/2 65/5/2
f 65/5/2 64/5/2 66/5/2
f 66/5/2 67/5/2 69/5/2
f 67/2/2 68/2/2 70/2/2
f 69/5/2 67/5/2 70/5/2
f 70/2/2 68/2/2 71/2/2
f 72/1/2 73/1/2 76/1/2
f 73/5/2 74/5/2 77/5/2
f 76/1/2 73/1/2 77/1/2
f 77/5/2 74/5/2 78/5/2
f 77/1/2 78/1/2 79/1/2
f 78/5/2 74/5/2 80/5/2
f 79/1/2 78/1/2 80/1/2
f 80/5/2 74/5/2 81/5/2
f 81/5/2 74/5/2 82/5/2
f 74/1/2 75/1/2 83/1/2
f 82/5/2 74/5/2 83/5/2
f 83/1/2 75/1/2 84/1/2
f 80/1/2 81/1/2 85/1/2
f 81/5/2 82/5/2 86/5/2
f 85/1/2 81/1/2 86/1/2
f 82/1/2 83/1/2 87/1/2
f 86/5/2 82/5/2 87/5/2
f 87/1/2 83/1/2 88/1/2
f 86/1/2 87/1/2 89/1/2
f 89/1/2 87/1/2 90/1/2
f 93/1/3 92/1/3 91/1/3
f 94/1/3 92/1/3 93/1/3
f 97/1/3 96/1/3 95/1/3
f 98/1/3 96/1/3 97/1/3
f 101/2/3 99/2/3 98/2/3
f 102/2/3 99/2/3 101/2/3
f 103/1/3 101/1/3 100/1/3
f 104/1/3 101/1/3 103/1/3
f 107/1/3 106/1/3 105/1/3
f 108/1/3 106/1/3 107/1/3
f 111/5/3 109/5/3 108/5/3
f 112/5/3 109/5/3 111/5/3
f 113/1/3 111/1/3 110/1/3
f 114/1/3 111/1/3 113/1/3
f 117/1/3 116/1/3 115/1/3
f 118/1/3 116/1/3 117/1/3
f 121/5/3 119/5/3 118/5/3
f 122/5/3 119/5/3 121/5/3
f 123/1/3 121/1/3 120/1/3
f 124/1/3 121/1/3 123/1/3
f 127/1/3 126/1/3 125/1/3
f 128/1/3 126/1/3 127/1/3
f 131/5/3 129/5/3 128/5/3
f 132/5/3 129/5/3 131/5/3
f 133/1/3 131/1/3 130/1/3
f 134/1/3 131/1/3 133/1/3
f 137/2/3 136/2/3 135/2/3
f 138/2/3 136/2/3 137/2/3
f 141/2/3 140/2/3 139/2/3
f 142/2/3 140/2/3 141/2/3
f 143/2/4 144/2/4 145/2/4
f 145/2/4 144/2/4 146/2/4
f 147/2/4 148/2/4 149/2/4
f 149/2/4 148/2/4 150/2/4
f 151/1/4 152/1/4 153/1/4
f 153/1/4 152/1/4 154/1/4
f 153/5/4 154/5/4 156/5/4
f 154/2/4 155/2/4 156/2/4
f 156/2/4 155/2/4 157/2/4
f 153/5/4 156/5/4 158/5/4
f 156/5/4 157/5/4 158/5/4
f 158/5/4 157/5/4 159/5/4
f 153/5/4 158/5/4 160/5/4
f 158/2/4 159/2/4 161/2/4
f 160/5/4 158/5/4 161/5/4
f 161/2/4 159/2/4 162/2/4
f 160/1/4 161/1/4 163/1/4
f 163/1/4 161/1/4 164/1/4
f 165/1/4 166/1/4 167/1/4
f 167/1/4 166/1/4 168/1/4
f 167/5/4 168/5/4 169/5/4
f 169/5/4 168/5/4 170/5/4
f 169/1/4 170/1/4 171/1/4
f 171/1/4 170/1/4 172/1/4
f 173/1/4 174/1/4 175/1/4
f 175/1/4 174/1/4 176/1/4
f 173/1/4 175/1/4 177/1/4
f 175/5/4 176/5/4 177/5/4
f 177/5/4 176/5/4 178/5/4
f 173/1/4 177/1/4 179/1/4
f 177/1/4 178/1/4 179/1/4
f 179/1/4 178/1/4 180/1/4
f 184/1/5 182/1/5 181/1/5
f 185/1/5 182/1/5 184/1/5
f 187/1/5 184/1/5 183/1/5
f 187/1/5 186/1/5 185/1/5
f 187/1/5 185/1/5 184/1/5
f 188/1/5 186/1/5 187/1/5
f 189/1/5 186/1/5 188/1/5
f 190/1/5 186/1/5 189/1/5
f 191/4/5 189/4/5 188/4/5
f 192/4/5 189/4/5 191/4/5
f 193/4/5 191/4/5 188/4/5
f 193/2/5 192/2/5 191/2/5
f 194/4/5 189/4/5 192/4/5
f 194/2/5 192/2/5 193/2/5
f 195/4/5 193/4/5 188/4/5
f 196/4/5 189/4/5 194/4/5
f 197/4/5 195/4/5 188/4/5
f 197/2/5 196/2/5 195/2/5
f 198/4/5 189/4/5 196/4/5
f 198/2/5 196/2/5 197/2/5
f 199/4/5 197/4/5 188/4/5
f 200/4/5 189/4/5 198/4/5
f 201/5/5 188/5/5 187/5/5
f 202/4/5 199/4/5 188/4/5
f 202/5/5 188/5/5 201/5/5
f 203/2/5 200/2/5 199/2/5
f 203/4/5 199/4/5 202/4/5
f 204/4/5 189/4/5 200/4/5
f 204/2/5 200/2/5 203/2/5
f 205/5/5 190/5/5 189/5/5
f 205/4/5 189/4/5 204/4/5
f 206/5/5 190/5/5 205/5/5
f 207/1/5 202/1/5 201/1/5
f 207/1/5 204/1/5 203/1/5
f 207/1/5 206/1/5 205/1/5
f 207/1/5 205/1/5 204/1/5
f 207/1/5 203/1/5 202/1/5
f 208/1/5 206/1/5 207/1/5
f 211/3/5 210/3/5 209/3/5
f 212/3/5 210/3/5 211/3/5
f 215/3/5 214/3/5 213/3/5
f 216/3/5 214/3/5 215/3/5
f 217/1/6 218/1/6 220/1/6
f 220/1/6 218/1/6 221/1/6
f 219/1/6 220/1/6 223/1/6
f 223/1/6 220/1/6 224/1/6
f 221/1/6 222/1/6 225/1/6
f 225/1/6 222/1/6 226/1/6
f 227/2/6 228/2/6 230/2/6
f 230/2/6 228/2/6 231/2/6
f 229/1/6 230/1/6 233/1/6
f 233/1/6 230/1/6 234/1/6
f 231/1/6 232/1/6 235/1/6
f 235/1/6 232/1/6 236/1/6
f 237/1/6 238/1/6 241/1/6
f 238/5/6 239/5/6 242/5/6
f 241/1/6 238/1/6 242/1/6
f 239/1/6 240/1/6 243/1/6
f 242/5/6 239/5/6 243/5/6
f 243/1/6 240/1/6 244/1/6
f 245/5/6 246/5/6 248/5/6
f 248/5/6 246/5/6 249/5/6
f 247/1/6 248/1/6 251/1/6
f 251/1/6 248/1/6 252/1/6
f 249/1/6 250/1/6 253/1/6
f 253/1/6 250/1/6 254/1/6
f 255/1/6 256/1/6 259/1/6
f 256/5/6 257/5/6 260/5/6
f 259/1/6 256/1/6 260/1/6
f 257/1/6 258/1/6 261/1/6
f 260/5/6 257/5/6 261/5/6
f 261/1/6 258/1/6 262/1/6
f 263/5/6 264/5/6 266/5/6
f 266/5/6 264/5/6 267/5/6
f 265/1/6 266/1/6 269/1/6
f 267/1/6 268/1/6 270/1/6
f 265/1/6 269/1/6 271/1/6
f 271/1/6 269/1/6 272/1/6
f 270/1/6 268/1/6 273/1/6
f 273/1/6 268/1/6 274/1/6
f 275/5/6 276/5/6 277/5/6
f 277/5/6 276/5/6 278/5/6
f 278/5/6 276/5/6 279/5/6
f 279/5/6 276/5/6 280/5/6
f 277/2/6 278/2/6 281/2/6
f 278/5/6 279/5/6 282/5/6
f 281/2/6 278/2/6 282/2/6
f 279/2/6 280/2/6 283/2/6
f 282/5/6 279/5/6 283/5/6
f 283/2/6 280/2/6 284/2/6
